<svg width="250" height="54" viewBox="0 0 250 54" fill="none" xmlns="http://www.w3.org/2000/svg">
<g clip-path="url(#clip0_24_2)">
<path d="M205.695 29.6195V35.0663H204.297V29.7423C204.297 29.2472 204.568 28.7665 205.11 28.3038L204.929 28.1267L204.087 28.8243L202.594 27.5665L203.386 26.7894L204.242 27.5268L205.099 26.8762L206.552 28.2641C205.981 28.6653 205.695 29.1171 205.695 29.6195Z" fill="black"/>
<path d="M212.674 32.3953C212.674 33.1976 212.392 33.8627 211.832 34.3904C211.279 34.9036 210.564 35.1602 209.685 35.1602C208.807 35.1602 208.073 34.9036 207.524 34.3904C206.971 33.8735 206.696 33.2085 206.696 32.3953C206.696 32.3338 206.696 32.2724 206.704 32.2073C206.707 32.1423 206.714 32.0736 206.725 31.9977H209.602V33.0675H208.247C208.493 33.6458 208.973 33.935 209.685 33.935C209.92 33.935 210.137 33.8988 210.332 33.8229C210.527 33.7506 210.694 33.6422 210.831 33.5049C210.968 33.3675 211.077 33.2049 211.149 33.0205C211.225 32.8326 211.261 32.6266 211.261 32.3953C211.261 32.1639 211.225 31.9688 211.149 31.7844C211.073 31.5965 210.968 31.4375 210.831 31.3037C210.694 31.17 210.527 31.0652 210.332 30.9893C210.137 30.917 209.92 30.8772 209.678 30.8772C209.035 30.8772 208.579 31.1194 208.308 31.6001H206.801C207.275 30.2881 208.232 29.6339 209.678 29.6339C210.56 29.6339 211.276 29.8905 211.825 30.4074C212.103 30.6676 212.313 30.964 212.454 31.2893C212.595 31.6182 212.667 31.9868 212.667 32.3953H212.674Z" fill="black"/>
<path d="M217.229 35.0699V31.4809C217.229 31.2604 217.124 31.0797 216.918 30.9387C216.712 30.7978 216.433 30.7291 216.086 30.7291C215.739 30.7291 215.468 30.7978 215.262 30.9387C215.056 31.0761 214.951 31.2568 214.951 31.4809V31.9254H216.516V32.9953H214.951V35.0735H213.553V31.5604C213.553 31.2785 213.611 31.0255 213.73 30.7978C213.849 30.5737 214.026 30.3677 214.261 30.1833C214.756 29.8183 215.364 29.6376 216.083 29.6376C216.802 29.6376 217.416 29.8183 217.897 30.1833C218.378 30.5484 218.62 31.0074 218.62 31.5568V35.0699H217.221H217.229Z" fill="black"/>
<path d="M225.459 32.3953C225.459 33.1976 225.177 33.8627 224.616 34.3904C224.063 34.9036 223.348 35.1602 222.47 35.1602C221.591 35.1602 220.861 34.9036 220.308 34.3904C219.755 33.8735 219.48 33.2085 219.48 32.3953C219.48 32.3338 219.48 32.2724 219.488 32.2073C219.491 32.1423 219.499 32.0736 219.509 31.9977H222.386V33.0675H221.031C221.277 33.6458 221.758 33.935 222.47 33.935C222.704 33.935 222.921 33.8988 223.116 33.8229C223.312 33.7506 223.478 33.6422 223.615 33.5049C223.753 33.3675 223.861 33.2049 223.933 33.0205C224.006 32.8326 224.045 32.6266 224.045 32.3953C224.045 32.1639 224.009 31.9688 223.933 31.7844C223.857 31.5965 223.753 31.4375 223.619 31.3037C223.482 31.17 223.315 31.0652 223.124 30.9893C222.929 30.917 222.712 30.8772 222.47 30.8772C221.826 30.8772 221.371 31.1194 221.1 31.6001H219.593C220.066 30.2881 221.024 29.6339 222.47 29.6339C223.351 29.6339 224.067 29.8905 224.616 30.4074C224.895 30.6676 225.104 30.964 225.245 31.2893C225.386 31.6182 225.459 31.9868 225.459 32.3953Z" fill="black"/>
<path d="M229.886 35.0698V34.4048C229.471 34.9072 228.889 35.1602 228.148 35.1602C227.667 35.1602 227.255 35.0192 226.912 34.7373C226.717 34.5855 226.572 34.4048 226.482 34.1915C226.388 33.9783 226.344 33.7434 226.344 33.4831V29.7351H227.743V33.3241C227.743 33.4325 227.765 33.5337 227.812 33.6277C227.859 33.7217 227.92 33.8012 228.003 33.8735C228.083 33.9421 228.184 33.9964 228.3 34.0361C228.415 34.0759 228.542 34.0939 228.683 34.0939C228.968 34.0939 229.239 34 229.496 33.812C229.76 33.6313 229.894 33.4181 229.894 33.1723V29.7314H231.292V35.0698H229.894H229.886Z" fill="black"/>
<path d="M239.305 31.3363C239.283 31.2531 239.236 31.1736 239.168 31.1013C239.099 31.029 239.012 30.964 238.911 30.9062C238.81 30.8483 238.694 30.805 238.568 30.776C238.441 30.7471 238.308 30.7291 238.167 30.7291C238.026 30.7291 237.899 30.7435 237.78 30.7724C237.661 30.8013 237.559 30.8375 237.473 30.8845C237.386 30.9315 237.321 30.9857 237.27 31.0471C237.223 31.1086 237.198 31.1736 237.198 31.2387C237.198 31.4519 237.606 31.6037 238.42 31.6941C238.763 31.7302 239.063 31.7772 239.316 31.8423C239.569 31.9037 239.779 31.9796 239.941 32.0664C240.429 32.323 240.671 32.7169 240.671 33.2519C240.671 33.8338 240.415 34.3072 239.902 34.6723C239.443 34.9976 238.861 35.1602 238.149 35.1602C237.437 35.1602 236.862 34.9976 236.396 34.6723C235.9 34.3072 235.644 33.8121 235.629 33.1868H236.992C237.039 33.7579 237.44 34.0398 238.203 34.0398C238.34 34.0398 238.477 34.0217 238.608 33.9892C238.738 33.9567 238.85 33.9133 238.947 33.8555C239.045 33.7976 239.124 33.7326 239.182 33.6531C239.244 33.5735 239.273 33.4904 239.273 33.4001C239.273 33.0928 238.908 32.9049 238.174 32.8398C236.58 32.6736 235.781 32.1929 235.781 31.4013C235.781 30.8881 236.02 30.4652 236.497 30.1291C236.721 29.9628 236.967 29.8399 237.241 29.7568C237.516 29.6737 237.812 29.6339 238.131 29.6339C239.598 29.6339 240.455 30.2014 240.697 31.3363H239.298H239.305Z" fill="black"/>
<path d="M239.901 37.2457C239.753 37.318 239.587 37.3758 239.406 37.4155C239.222 37.4553 239.02 37.4734 238.799 37.4734C238.123 37.4734 237.61 37.3035 237.256 36.9638V36.4035H236.818V35.6011H238.467V36.5192C238.568 36.5626 238.662 36.5842 238.752 36.5842C238.944 36.5842 239.038 36.5156 239.038 36.3746V35.5975H240.436V36.53C240.436 36.8336 240.259 37.0722 239.909 37.2384L239.901 37.2457Z" fill="black"/>
<path d="M247.004 35.0699H246.039L244.803 31.7086L243.581 35.0699H242.609L241.004 29.7315H242.323L243.205 32.9302L244.387 29.7315H245.229L246.44 32.9302L247.636 28.7412H248.894L247.011 35.0699H247.004Z" fill="black"/>
<path d="M142.426 44.6117C141.823 45.8297 141.031 46.867 140.048 47.7273C139.065 48.5875 137.908 49.2489 136.575 49.7043C135.241 50.1597 133.781 50.3874 132.194 50.3874C128.338 50.3874 125.237 49.1368 122.895 46.6357C120.643 44.3225 119.515 41.3299 119.515 37.6613C119.515 33.9928 120.661 30.8591 122.949 28.4086C125.2 25.9906 128.284 24.7834 132.194 24.7834C133.672 24.7834 135.024 24.9714 136.25 25.3545C137.475 25.734 138.602 26.3051 139.629 27.0641C140.71 27.8737 141.559 28.8351 142.17 29.9411C142.784 31.0471 143.171 32.2868 143.334 33.6566H137.898C137.807 33.0314 137.598 32.4495 137.262 31.9073C136.929 31.3652 136.503 30.9061 135.989 30.5266C135.476 30.1471 134.894 29.8471 134.247 29.6267C133.6 29.4062 132.913 29.2978 132.191 29.2978C131.001 29.2978 129.961 29.5146 129.068 29.9447C128.175 30.3748 127.405 31.0218 126.755 31.8856C126.231 32.6446 125.837 33.5085 125.566 34.4699C125.294 35.4349 125.161 36.4975 125.161 37.6649C125.161 38.8324 125.294 39.8552 125.566 40.7841C125.837 41.713 126.231 42.5588 126.755 43.3178C128.034 45.0093 129.845 45.8514 132.191 45.8514C135.653 45.8514 137.627 44.0695 138.111 40.5022H143.547C143.402 42.0238 143.026 43.3937 142.423 44.6081L142.426 44.6117Z" fill="black"/>
<path d="M172.776 37.6649C172.776 41.3154 171.666 44.3081 169.451 46.6393C168.262 47.8899 166.895 48.826 165.356 49.4513C163.816 50.0766 162.059 50.3874 160.097 50.3874C156.24 50.3874 153.139 49.1368 150.793 46.6357C148.538 44.3225 147.414 41.3299 147.414 37.6613C147.414 33.9928 148.56 30.8591 150.848 28.4086C153.099 25.9906 156.182 24.7834 160.093 24.7834C162.056 24.7834 163.812 25.0907 165.352 25.7087C166.892 26.3268 168.258 27.2448 169.447 28.4592C171.663 30.8411 172.772 33.9096 172.772 37.6613L172.776 37.6649ZM167.123 37.6649C167.123 35.3518 166.592 33.4253 165.529 31.8856C164.897 31.0254 164.13 30.3784 163.23 29.9447C162.33 29.5146 161.286 29.2978 160.093 29.2978C158.9 29.2978 157.863 29.5146 156.97 29.9447C156.078 30.3748 155.308 31.0218 154.657 31.8856C154.133 32.6446 153.739 33.5085 153.468 34.4699C153.197 35.4349 153.063 36.4975 153.063 37.6649C153.063 38.8324 153.197 39.8552 153.468 40.7841C153.739 41.713 154.133 42.5588 154.657 43.3178C155.937 45.0093 157.747 45.8514 160.093 45.8514C162.439 45.8514 164.282 45.0057 165.529 43.3178C166.592 41.8142 167.123 39.9311 167.123 37.6649Z" fill="black"/>
<path d="M193.812 49.8091L183.077 33.4073H183.023V49.8091H177.695V25.3473L184.096 25.4051L194.137 41.825H194.191V25.3509H199.519V49.8127H193.812V49.8091Z" fill="black"/>
<path d="M211.666 48.9236C211.533 48.6308 211.439 48.226 211.392 47.7056L211.247 46.3429C211.2 46.0538 211.131 45.8044 211.037 45.5948C210.947 45.3888 210.824 45.2189 210.676 45.0888C210.524 44.9587 210.343 44.8611 210.127 44.8032C209.913 44.7454 209.657 44.7129 209.364 44.7129H206.827V48.9272H204.336V38.1456H210.437C210.954 38.1456 211.421 38.2215 211.836 38.3733C212.255 38.5251 212.606 38.7384 212.899 39.0058C213.188 39.2733 213.412 39.5914 213.571 39.9528C213.73 40.3178 213.81 40.7082 213.81 41.1275C213.81 42.4611 213.206 43.3575 211.999 43.8201V43.8418C213.014 44.0731 213.578 44.9153 213.69 46.3682L213.763 47.6658C213.802 47.973 213.849 48.226 213.907 48.432C213.961 48.638 214.034 48.8043 214.12 48.9308H211.666V48.9236ZM211.319 41.4817C211.319 40.4769 210.741 39.9745 209.581 39.9745H206.827V43.025H209.581C210.741 43.025 211.319 42.5117 211.319 41.4817Z" fill="#F5951D"/>
<path d="M226.991 43.5708C226.991 45.1792 226.503 46.4984 225.527 47.5249C225.003 48.0743 224.399 48.4899 223.72 48.7646C223.04 49.0393 222.267 49.1767 221.403 49.1767C219.704 49.1767 218.338 48.6237 217.305 47.5213C216.311 46.502 215.815 45.1828 215.815 43.5672C215.815 41.9516 216.321 40.5709 217.33 39.4902C218.324 38.424 219.683 37.8927 221.407 37.8927C222.271 37.8927 223.044 38.03 223.724 38.3011C224.403 38.5722 225.003 38.977 225.531 39.5155C226.507 40.5637 226.995 41.9155 226.995 43.5708H226.991ZM224.501 43.5708C224.501 42.5516 224.266 41.7022 223.796 41.0227C223.518 40.6432 223.181 40.3577 222.784 40.1697C222.386 39.9782 221.927 39.8842 221.403 39.8842C220.879 39.8842 220.42 39.9782 220.026 40.1697C219.632 40.3613 219.292 40.6432 219.007 41.0227C218.776 41.3588 218.602 41.7384 218.483 42.1612C218.364 42.5841 218.306 43.054 218.306 43.5672C218.306 44.0804 218.364 44.5322 218.483 44.9407C218.602 45.3491 218.776 45.7214 219.007 46.0575C219.571 46.802 220.37 47.1743 221.403 47.1743C222.437 47.1743 223.25 46.802 223.8 46.0575C224.269 45.3924 224.504 44.5648 224.504 43.5672L224.501 43.5708Z" fill="#F5951D"/>
<path d="M239.847 43.5708C239.847 45.1792 239.359 46.4984 238.38 47.5249C237.856 48.0743 237.252 48.4899 236.576 48.7646C235.897 49.0393 235.123 49.1767 234.26 49.1767C232.557 49.1767 231.191 48.6237 230.161 47.5213C229.167 46.502 228.672 45.1828 228.672 43.5672C228.672 41.9516 229.178 40.5709 230.186 39.4902C231.18 38.424 232.539 37.8927 234.263 37.8927C235.131 37.8927 235.901 38.03 236.58 38.3011C237.26 38.5722 237.86 38.977 238.384 39.5155C239.359 40.5637 239.851 41.9155 239.851 43.5708H239.847ZM237.357 43.5708C237.357 42.5516 237.122 41.7022 236.652 41.0227C236.374 40.6432 236.038 40.3577 235.64 40.1697C235.243 39.9782 234.784 39.8842 234.26 39.8842C233.736 39.8842 233.277 39.9782 232.883 40.1697C232.489 40.3613 232.149 40.6432 231.863 41.0227C231.632 41.3588 231.459 41.7384 231.339 42.1612C231.22 42.5841 231.162 43.054 231.162 43.5672C231.162 44.0804 231.22 44.5322 231.339 44.9407C231.459 45.3491 231.632 45.7214 231.863 46.0575C232.427 46.802 233.226 47.1743 234.26 47.1743C235.293 47.1743 236.107 46.802 236.656 46.0575C237.126 45.3924 237.361 44.5648 237.361 43.5672L237.357 43.5708Z" fill="#F5951D"/>
<path d="M244.506 40.1408V42.6311H249.32V44.4636H244.506V48.9237H242.016V38.1421H250V40.1408H244.506Z" fill="#F5951D"/>
<path d="M115.257 47.3911C115.257 49.0031 113.768 50.3079 111.936 50.3079C110.1 50.3079 108.614 49.0031 108.614 47.3911V28.7628C108.614 27.1508 110.103 25.8461 111.936 25.8461C113.772 25.8461 115.257 27.1508 115.257 28.7628V47.3911Z" fill="black"/>
<path d="M33.8628 34.7591L53.6332 16.3802L110.642 52.7043L53.6043 0L16.7417 34.1013C22.4849 34.1013 28.163 34.2458 33.8628 34.7591Z" fill="#F5951D"/>
<path d="M33.8627 34.7591C28.1629 34.2459 22.4848 34.1013 16.7416 34.1013L0 49.5924C0 49.5924 8.51176 46.0539 23.2004 44.6733C38.3047 43.2528 59.9365 44.113 85.5839 53.4489C66.7496 40.7192 50.2104 36.2302 33.8627 34.7591Z" fill="#757679"/>
<path d="M115.507 19.3764C115.507 21.4185 113.851 23.0739 111.809 23.0739C109.767 23.0739 108.112 21.4185 108.112 19.3764C108.112 17.3343 109.767 15.679 111.809 15.679C113.851 15.679 115.507 17.3343 115.507 19.3764Z" fill="black"/>
</g>
<defs>
<clipPath id="clip0_24_2">
<rect width="250" height="53.4488" fill="white"/>
</clipPath>
</defs>
</svg>
